<?xml version="1.0" standalone="no"?>
<!DOCTYPE svg PUBLIC "-//W3C//DTD SVG 20010904//EN"
 "http://www.w3.org/TR/2001/REC-SVG-20010904/DTD/svg10.dtd">
<svg version="1.0" xmlns="http://www.w3.org/2000/svg"
 width="267.000000pt" height="267.000000pt" viewBox="0 0 267.000000 267.000000"
 preserveAspectRatio="xMidYMid meet">
<metadata>
Created by potrace 1.11, written by Peter Selinger 2001-2013
</metadata>
<g transform="translate(0.000000,267.000000) scale(0.100000,-0.100000)"
fill="#000000" stroke="none">
<path d="M486 2650 c-34 -11 -82 -54 -102 -92 -12 -22 -14 -140 -14 -698 l0
-671 39 -37 c74 -71 74 -170 0 -237 -24 -22 -39 -44 -39 -58 0 -32 38 -86 79
-114 34 -23 36 -23 406 -23 l373 0 12 30 c7 17 28 44 48 61 33 29 39 31 95 27
54 -4 63 -8 93 -41 19 -20 34 -46 34 -57 0 -20 6 -20 339 -20 335 0 338 0 372
23 18 12 44 38 56 56 l23 34 -2 861 -3 861 -23 31 c-13 16 -37 39 -55 50 -31
18 -61 19 -867 21 -459 1 -848 -2 -864 -7z m877 -70 c34 -27 41 -53 23 -88
-24 -47 -66 -55 -110 -21 -34 27 -35 71 -1 104 29 30 54 31 88 5z m747 -75
c104 -54 62 -215 -56 -215 -39 0 -51 5 -80 34 -93 93 18 242 136 181z m-433
-10 c12 -3 36 -22 52 -41 26 -29 31 -43 31 -86 0 -45 -4 -54 -39 -89 -34 -34
-44 -39 -86 -39 -65 0 -109 29 -131 85 -16 42 -16 48 0 89 20 51 32 63 83 82
37 13 44 13 90 -1z m-437 -16 c0 -5 -76 -47 -170 -92 l-170 -82 0 -55 0 -55
216 -94 215 -94 32 31 c40 38 100 64 139 60 29 -3 31 0 50 60 10 34 23 62 29
62 10 0 5 -30 -18 -94 -7 -22 -12 -40 -11 -41 2 0 15 -9 30 -18 15 -9 30 -17
33 -17 3 0 5 36 5 80 0 123 18 95 22 -35 1 -63 8 -118 13 -124 6 -6 27 -6 55
-1 25 5 49 5 54 0 5 -5 -8 -11 -30 -15 -66 -11 -74 -15 -74 -38 0 -19 -6 -22
-50 -24 -64 -3 -119 -31 -163 -85 l-36 -43 -40 43 c-43 44 -57 89 -48 146 l5
33 -220 96 -220 97 -19 -24 c-17 -22 -24 -23 -110 -20 -101 3 -109 8 -131 77
-27 89 64 189 157 171 21 -4 52 -20 70 -36 l34 -29 168 85 c92 47 171 85 176
85 4 1 7 -4 7 -10z m680 -88 c0 -10 -120 -21 -134 -13 -16 9 27 21 82 21 28 1
52 -3 52 -8z m103 -235 c105 -45 137 -182 61 -266 -44 -49 -82 -64 -145 -58
-91 9 -149 74 -149 168 0 71 27 116 90 148 51 25 96 28 143 8z m-1216 -47 c45
-17 90 -67 103 -115 16 -57 2 -109 -42 -160 l-32 -36 77 -154 c42 -85 77 -157
77 -160 0 -22 -31 29 -95 157 -41 82 -80 149 -86 149 -6 0 -8 -8 -5 -17 24
-81 66 -267 61 -271 -11 -11 -21 17 -44 116 -41 180 -34 167 -89 169 l-48 3
-144 -295 c-121 -249 -160 -320 -160 -290 0 2 65 138 144 302 l143 297 -28 23
c-15 13 -35 44 -45 69 -15 40 -16 53 -5 93 26 99 126 155 218 120z m896 -253
c39 -17 92 -71 106 -109 17 -45 13 -124 -9 -166 -75 -147 -283 -145 -356 4
-34 70 -29 138 13 200 52 74 164 106 246 71z m117 6 c0 -5 -9 -17 -20 -27 -22
-20 -28 -4 -7 20 14 16 27 19 27 7z m235 -84 c9 -24 19 -49 22 -55 3 -7 0 -13
-6 -13 -10 0 -29 37 -45 88 -13 40 12 23 29 -20z m94 -93 c31 -15 54 -65 44
-93 -30 -85 -141 -82 -167 5 -9 28 18 81 47 93 32 13 44 12 76 -5z m-1172
-225 c62 -37 82 -124 43 -187 -72 -118 -244 -81 -258 55 -8 89 48 152 138 152
27 0 58 -8 77 -20z m789 -62 c65 -129 103 -218 94 -218 -9 0 -99 171 -133 253
-28 66 1 40 39 -35z m-210 -26 c-9 -33 -16 -64 -16 -70 0 -6 23 -13 50 -17 28
-4 50 -11 50 -17 0 -6 -21 -7 -54 -3 l-54 7 -11 -38 c-6 -22 -30 -114 -54
-206 -23 -93 -45 -168 -49 -168 -13 0 -10 18 41 218 49 190 49 192 28 196 -28
6 -355 36 -385 36 -20 0 -13 -18 93 -230 63 -126 111 -230 105 -230 -11 0
-240 452 -240 474 0 10 10 13 38 9 106 -13 408 -40 413 -37 4 2 15 36 24 76
10 40 20 78 24 83 13 23 11 -27 -3 -83z m192 -68 c26 -18 28 -50 5 -76 -20
-22 -51 -23 -75 -1 -24 21 -23 48 2 73 24 24 38 25 68 4z m-607 -270 c72 -97
133 -182 136 -190 16 -43 -26 6 -142 162 -147 200 -150 204 -135 204 5 0 69
-79 141 -176z m847 116 c67 -41 78 -133 22 -188 -82 -83 -218 -19 -207 96 10
93 105 140 185 92z m-1138 -275 c190 -58 351 -108 358 -110 7 -3 11 -9 8 -14
-7 -11 -729 212 -734 227 -2 7 2 10 10 7 7 -2 168 -52 358 -110z m949 81 c-40
-29 -270 -166 -280 -166 -21 0 -2 15 141 104 74 47 137 80 139 75 1 -6 1 -11
0 -13z"/>
<path d="M453 535 c-18 -8 -42 -29 -53 -47 -18 -30 -20 -50 -20 -208 0 -158 2
-178 20 -208 31 -51 71 -62 215 -62 l125 0 0 25 0 25 -110 0 c-126 0 -174 14
-190 55 -6 15 -10 93 -10 175 0 143 1 150 24 177 24 28 26 28 155 32 131 3
131 3 131 27 l0 24 -127 0 c-87 -1 -138 -5 -160 -15z"/>
<path d="M810 525 l0 -25 148 0 c181 0 218 -9 238 -55 27 -66 29 -65 -128 -65
-158 0 -193 -10 -232 -63 -30 -41 -35 -187 -8 -236 32 -58 69 -71 207 -71 139
0 179 13 208 70 15 30 17 58 15 207 -3 155 -5 174 -24 200 -40 55 -72 63 -256
63 l-168 0 0 -25z m395 -307 c0 -98 -2 -109 -23 -130 -20 -20 -35 -23 -119
-27 -125 -4 -170 9 -189 54 -18 44 -18 116 0 160 20 46 52 54 206 52 l125 -2
0 -107z"/>
<path d="M1403 535 c-17 -7 -38 -24 -47 -37 -38 -58 -28 -164 20 -209 23 -22
36 -24 151 -29 116 -5 126 -7 144 -29 26 -32 26 -110 0 -142 -18 -23 -25 -24
-175 -27 l-156 -3 0 -25 0 -24 158 0 c139 0 161 2 190 20 41 25 52 54 52 136
0 69 -17 116 -47 130 -10 4 -73 10 -139 13 -149 7 -164 16 -164 96 0 84 11 89
201 94 l159 3 0 24 0 24 -157 0 c-112 -1 -167 -5 -190 -15z"/>
<path d="M1820 525 l0 -25 148 0 c81 0 164 -5 184 -11 39 -10 68 -48 68 -89 0
-19 -6 -20 -142 -20 -116 0 -149 -3 -177 -18 -59 -29 -76 -63 -79 -155 -3 -96
13 -138 67 -174 31 -21 46 -23 160 -23 109 0 131 3 159 20 56 34 64 69 60 265
-3 169 -4 174 -28 201 -44 47 -75 54 -255 54 l-165 0 0 -25z m395 -307 c0 -99
-2 -109 -23 -130 -19 -20 -35 -23 -113 -27 -176 -6 -199 9 -199 132 0 74 3 86
23 104 28 27 45 29 192 29 l120 -1 0 -107z"/>
</g>
</svg>
